<?xml version="1.0" standalone="no"?><!DOCTYPE svg PUBLIC "-//W3C//DTD SVG 1.1//EN" "http://www.w3.org/Graphics/SVG/1.1/DTD/svg11.dtd"><svg t="1741438928953" class="icon" viewBox="0 0 1024 1024" version="1.1" xmlns="http://www.w3.org/2000/svg" p-id="12320" xmlns:xlink="http://www.w3.org/1999/xlink" width="200" height="200"><path d="M0 0h1024v1024H0z" fill="#1cb0f6" p-id="12321" data-spm-anchor-id="a313x.search_index.0.i4.95bf3a81xeUTWY" class="selected"></path><path d="M296.234667 367.061333l175.104-141.994666a27.178667 27.178667 0 0 1 29.013333-3.413334 27.733333 27.733333 0 0 1 15.573333 25.002667v528.64a27.733333 27.733333 0 0 1-15.530666 25.002667 27.178667 27.178667 0 0 1-29.013334-3.328l-179.925333-145.109334H155.434667a27.562667 27.562667 0 0 1-27.434667-27.733333V394.794667c0-15.274667 12.288-27.733333 27.434667-27.733334h140.8z m351.872 314.88a27.221333 27.221333 0 0 1-38.485334-0.682666 27.904 27.904 0 0 1 0.042667-38.912 186.368 186.368 0 0 0 55.125333-132.778667 186.368 186.368 0 0 0-47.786666-125.098667 27.904 27.904 0 0 1-6.101334-27.221333 27.264 27.264 0 1 1 46.677334-10.069333 242.090667 242.090667 0 0 1 62.08 162.389333 242.090667 242.090667 0 0 1-71.552 172.373333z m130.389333 120.106667a27.264 27.264 0 0 1-46.293333-11.648 27.904 27.904 0 0 1 6.954666-26.965333 364.885333 364.885333 0 0 0 101.973334-253.866667c0-94.122667-35.413333-182.613333-98.090667-249.728a27.904 27.904 0 0 1 1.365333-38.954667 27.221333 27.221333 0 0 1 38.570667 0.938667A420.394667 420.394667 0 0 1 896 509.568c0 110.72-42.666667 214.698667-117.504 292.48z" fill="#FFFFFF" p-id="12322"></path></svg>