<?xml version="1.0" standalone="no"?><!DOCTYPE svg PUBLIC "-//W3C//DTD SVG 1.1//EN" "http://www.w3.org/Graphics/SVG/1.1/DTD/svg11.dtd"><svg t="1740541029046" class="icon" viewBox="0 0 1185 1024" version="1.1" xmlns="http://www.w3.org/2000/svg" p-id="13833" xmlns:xlink="http://www.w3.org/1999/xlink" width="231.4453125" height="200"><path d="M140.126316 272.168421H8.084211v220.968421h1172.210526v-220.968421h-137.431579z" fill="#FDE466" p-id="13834"></path><path d="M1040.168421 118.568421v156.294737h134.736842v-107.789474c0-78.147368-61.978947-145.515789-134.736842-158.989473v110.48421zM140.126316 10.778947C67.368421 24.252632 8.084211 88.926316 8.084211 167.073684v113.178948h132.042105V10.778947z" fill="#FDE670" p-id="13835"></path><path d="M134.736842 361.094737h374.568421V121.263158H134.736842v239.831579z m541.642105-239.831579v242.526316h366.484211v-242.526316H676.378947z" fill="#F2573B" p-id="13836"></path><path d="M509.305263 8.084211v266.778947l167.073684-2.694737V8.084211z" fill="#FFA371" p-id="13837"></path><path d="M169.768421 8.084211H140.126316v113.178947H512V8.084211H169.768421z m506.610526 0v113.178947h366.484211V8.084211c-10.778947-2.694737-21.557895-2.694737-26.947369-2.694737H676.378947v2.694737z" fill="#E1462A" p-id="13838"></path><path d="M8.084211 856.926316c0 88.926316 70.063158 156.294737 161.68421 156.294737h851.536842c91.621053 0 161.684211-61.978947 161.684211-153.6V460.8H8.084211v396.126316z" fill="#F9C45A" p-id="13839"></path><path d="M137.431579 649.431579H1050.947368v-59.284211H137.431579z" fill="#D7341F" p-id="13840"></path><path d="M137.431579 891.957895H1050.947368v-242.526316H137.431579z" fill="#EB492C" p-id="13841"></path><path d="M398.821053 455.410526c0 113.178947 91.621053 204.8 204.8 204.8 51.2 0 102.4-21.557895 140.126315-53.894737L452.715789 315.284211c-35.031579 37.726316-53.894737 86.231579-53.894736 140.126315m414.989473 0c0-113.178947-91.621053-204.8-204.8-204.8-21.557895 0-43.115789 2.694737-59.28421 10.778948l258.694737 256c0-21.557895 5.389474-40.421053 5.389473-61.978948" fill="#FCD134" p-id="13842"></path><path d="M803.031579 512l-258.694737-256c-35.031579 10.778947-70.063158 29.642105-94.315789 56.589474l288.336842 288.336842c32.336842-18.863158 53.894737-51.2 64.673684-88.926316" fill="#FFE786" p-id="13843"></path><path d="M493.136842 455.410526c0-61.978947 51.2-113.178947 110.484211-113.178947 59.284211 0 110.484211 51.2 110.48421 113.178947s-51.2 113.178947-110.48421 113.178948c-59.284211 0-110.484211-51.2-110.484211-113.178948z" fill="#E56049" p-id="13844"></path><path d="M840.757895 43.115789c0 99.705263-80.842105 180.547368-180.547369 180.547369 102.4 0 180.547368 80.842105 180.547369 180.547368 0-99.705263 80.842105-180.547368 180.547368-180.547368-97.010526 0-180.547368-80.842105-180.547368-180.547369M282.947368 86.231579c0 99.705263-80.842105 180.547368-180.547368 180.547368 102.4 0 180.547368 80.842105 180.547368 180.547369 0-99.705263 80.842105-180.547368 180.547369-180.547369-99.705263-2.694737-180.547368-83.536842-180.547369-180.547368" fill="#FFFFFF" p-id="13845"></path></svg>