<?xml version="1.0" standalone="no"?><!DOCTYPE svg PUBLIC "-//W3C//DTD SVG 1.1//EN" "http://www.w3.org/Graphics/SVG/1.1/DTD/svg11.dtd"><svg t="1740617550591" class="icon" viewBox="0 0 1170 1024" version="1.1" xmlns="http://www.w3.org/2000/svg" p-id="12023" xmlns:xlink="http://www.w3.org/1999/xlink" width="228.515625" height="200"><path d="M0.555616 873.066956C0.555616 958.43733 66.479436 1024 152.405426 1024h805.920781c85.92599 0 151.794249-59.367553 151.794249-147.543787v-387.819859H0.555616v384.430602z" fill="#F9C45A" p-id="12024"></path><path d="M119.735214 613.594357H992.052089v59.339772H119.735214z" fill="#E13416" p-id="12025"></path><path d="M119.735214 672.934129H992.052089v233.469778H119.735214z" fill="#F44A2C" p-id="12026"></path><path d="M56.1172 488.719696l-55.561584-282.086164H1110.120456l-55.561585 282.030603z" fill="#E13416" p-id="12027"></path><path d="M127.791644 206.633532l55.894954 282.086164-127.541617-0.055561L0 206.633532zM983.773413 206.633532L927.878459 488.719696l127.513836-0.055561 56.172762-282.030603z" fill="#F04325" p-id="12028"></path><path d="M0.555616 206.633532l47.838524-91.676614A111.123169 111.123169 0 0 1 146.904829 55.228215h816.39414a111.123169 111.123169 0 0 1 98.344004 59.367553l48.449702 92.037764H0.555616z" fill="#F44A2C" p-id="12029"></path><path d="M472.273467 55.200434V162.795442h166.684753V55.200434z" fill="#FFA371" p-id="12030"></path><path d="M79.536408 55.200434h131.347585l-83.12013 151.405317H0.583397zM1031.445252 55.200434H900.097667l83.12013 151.405317h127.180467z" fill="#FDE466" p-id="12031"></path><path d="M165.934672 135.01465H55.561584v71.618882h972.327727V135.01465z" fill="#FDE466" p-id="12032"></path><path d="M532.752252 55.561584C505.888226 61.673359 505.943787 71.396636 486.163863 89.676397l191.326316 240.470537c22.419099-14.751601 16.223983-31.892349 28.558654-56.200542L532.752252 55.561584z" fill="#FFE786" p-id="12033"></path><path d="M486.552794 186.325773c4.111557-22.613565 39.948779-39.587629 76.536083-37.198481 36.587303 2.166902 65.701574 23.058058 61.590016 45.699404-4.111557 22.613565-39.948779 39.587629-76.536082 37.19848-36.587303-2.166902-65.701574-23.058058-61.590017-45.699403z" fill="#E56049" p-id="12034"></path></svg>