<?xml version="1.0" standalone="no"?><!DOCTYPE svg PUBLIC "-//W3C//DTD SVG 1.1//EN" "http://www.w3.org/Graphics/SVG/1.1/DTD/svg11.dtd"><svg t="1741406475531" class="icon" viewBox="0 0 1183 1024" version="1.1" xmlns="http://www.w3.org/2000/svg" p-id="7036" xmlns:xlink="http://www.w3.org/1999/xlink" width="231.0546875" height="200"><path d="M905.668802 905.928585V118.071415c0-64.945773-55.853365-118.071415-124.371155-118.071415H124.371155C55.853365 0 0 53.320479 0 118.071415v787.85717c0 64.945773 55.853365 118.071415 124.371155 118.071415H781.297647c68.51779 0 124.371155-53.320479 124.371155-118.071415z" fill="#F9A974" opacity=".8" p-id="7037"></path><path d="M513.266443 225.881398a46.24139 46.24139 0 0 0-46.696011-45.462041H169.31363a45.462041 45.462041 0 1 0 0 90.33957h297.256802a46.046553 46.046553 0 0 0 46.696011-44.877529zM513.266443 587.304624a46.24139 46.24139 0 0 0-46.696011-45.462041H169.31363a45.462041 45.462041 0 1 0 0 90.33957h297.256802a46.046553 46.046553 0 0 0 46.696011-44.877529z" fill="#FFFFFF" p-id="7038"></path><path d="M603.930741 406.625484a43.968288 43.968288 0 0 0-42.149806-45.462041H165.092154a45.462041 45.462041 0 0 0 0 90.33957H561.780935a43.773451 43.773451 0 0 0 42.149806-44.877529z" fill="#FFFFFF" p-id="7039"></path><path d="M997.56707 264.848862l133.138835 133.138834c3.312234-2.987506 6.949198-6.494577 10.845944-10.261432s6.949198-6.949198 11.755185-11.170673 9.352191-9.352191 15.067419-15.06742a61.30881 61.30881 0 0 0 11.430456-17.795141 51.372106 51.372106 0 0 0 3.636963-18.704383 86.767552 86.767552 0 0 0-1.818481-17.795142 89.235492 89.235492 0 0 0-4.546204-15.067419 165.481829 165.481829 0 0 0-28.056574-40.266379 136.710852 136.710852 0 0 0-32.797616-27.407116 109.628465 109.628465 0 0 0-16.885901-6.494577 91.378702 91.378702 0 0 0-19.873406-3.312235 72.414537 72.414537 0 0 0-21.107376 2.727723 58.451196 58.451196 0 0 0-20.782647 11.170673c-5.130716 4.221475-11.755185 10.261432-19.483732 17.470412s-14.547853 13.508721-20.522865 18.834275z" fill="#F9A974" opacity=".7" p-id="7040"></path><path d="M588.408702 699.985539c-3.896746 11.430456-7.858439 23.770153-11.755185 37.34382s-7.858439 26.497875-11.430456 38.967463a267.706476 267.706476 0 0 0-6.494577 28.900869c-1.818482 12.339697-0.584512 20.782647 3.636963 25.97831s12.664426 7.208981 25.588634 5.715228q9.027462-1.363861 27.991628-6.494578c12.339697-3.636963 25.978309-7.208981 39.746813-11.755185s27.731845-9.352191 40.331325-13.833449 22.601129-8.702734 29.225598-12.014968a98.392846 98.392846 0 0 0 19.483732-11.430456q9.027462-7.208981 16.236443-13.573667a207.826473 207.826473 0 0 0 17.795142-17.145684c9.936703-9.936703 22.601129-22.601129 37.668548-37.928331s32.472886-32.472886 51.501998-50.917486l56.892497-57.541955 153.012241-153.272024-133.138835-133.723346-153.336969 153.272024-57.801738 57.801738-51.956618 51.956618c-15.651931 15.651931-28.641086 28.900869-38.967464 39.422084s-17.145684 17.795142-19.873406 20.457919a106.835796 106.835796 0 0 0-15.327203 18.054924 102.679267 102.679267 0 0 0-9.611974 18.054925 160.156276 160.156276 0 0 0-9.417137 23.705207z" fill="#F9A974" opacity=".7" p-id="7041"></path></svg>