<?xml version="1.0" standalone="no"?><!DOCTYPE svg PUBLIC "-//W3C//DTD SVG 1.1//EN" "http://www.w3.org/Graphics/SVG/1.1/DTD/svg11.dtd"><svg t="1741348367585" class="icon" viewBox="0 0 1024 1024" version="1.1" xmlns="http://www.w3.org/2000/svg" p-id="5873" xmlns:xlink="http://www.w3.org/1999/xlink" width="200" height="200"><path d="M300.373333 616.106667H162.133333c-39.253333 0-71.68-32.426667-71.68-71.68V170.666667c0-39.253333 32.426667-69.973333 71.68-69.973334h139.946667v515.413334zM162.133333 151.893333c-10.24 0-20.48 8.533333-20.48 18.773334v373.76c0 10.24 10.24 20.48 20.48 20.48h88.746667V151.893333H162.133333z" fill="#6b7280" p-id="5874"></path><path d="M552.96 971.093333c-44.373333 0-80.213333-29.013333-87.04-69.973333-35.84-175.786667-126.293333-259.413333-199.68-279.893333l-20.48-6.826667V100.693333h494.933333c52.906667 0 98.986667 34.133333 112.64 85.333334l102.4 361.813333c6.826667 30.72 0 58.026667-17.066666 78.506667-17.066667 22.186667-44.373333 35.84-73.386667 35.84h-204.8c-10.24 0-22.186667 10.24-22.186667 20.48v203.093333c1.706667 47.786667-37.546667 85.333333-85.333333 85.333333z m-256-394.24c83.626667 32.426667 180.906667 129.706667 218.453333 314.026667 3.413333 17.066667 17.066667 29.013333 35.84 29.013333 20.48 0 35.84-15.36 35.84-34.133333V682.666667c0-39.253333 34.133333-71.68 73.386667-71.68h204.8c13.653333 0 25.6-6.826667 34.133333-17.066667 8.533333-8.533333 10.24-20.48 6.826667-34.133333l-102.4-360.106667c-8.533333-29.013333-34.133333-47.786667-64.853333-47.786667h-443.733334v424.96z" fill="#6b7280" p-id="5875"></path></svg>