<?xml version="1.0" standalone="no"?><!DOCTYPE svg PUBLIC "-//W3C//DTD SVG 1.1//EN" "http://www.w3.org/Graphics/SVG/1.1/DTD/svg11.dtd"><svg t="1739688174315" class="icon" viewBox="0 0 1024 1024" version="1.1" xmlns="http://www.w3.org/2000/svg" p-id="6841" xmlns:xlink="http://www.w3.org/1999/xlink" width="200" height="200"><path d="M764.796402 311.469187L571.560544 118.152869a28.911625 28.911625 0 0 0-20.382963-8.448202H169.801605a28.697067 28.697067 0 0 0-28.750706 28.723887V885.598266A28.697067 28.697067 0 0 0 169.801605 914.295333h574.692293a28.697067 28.697067 0 0 0 28.750706-28.723887V331.771691a28.697067 28.697067 0 0 0-8.448202-20.302504z m-226.840928-135.493068l169.017679 168.990859h-169.017679V175.976119z m170.62686 673.656944H205.713169V174.366937h271.200693v193.95999c0 20.812079 16.896404 37.708483 37.708483 37.708482h193.959989v443.597654z" fill="#2463eb" p-id="6842"></path><path d="M543.936265 438.138577l-88.719531 78.849885h-101.780719c-13.222107 0-23.923162 9.49417-23.923163 21.241194v127.608079c0 11.747024 10.701056 21.268013 23.923163 21.268013h101.780719l88.719531 78.823066c14.992206 13.302566 40.846386 3.942494 40.846386-15.045846v-297.698546c0-19.015159-25.881-28.321591-40.846386-15.019025z" fill="#2463eb" p-id="6843"></path></svg>