<?xml version="1.0" standalone="no"?><!DOCTYPE svg PUBLIC "-//W3C//DTD SVG 1.1//EN" "http://www.w3.org/Graphics/SVG/1.1/DTD/svg11.dtd"><svg t="1741485066669" class="icon" viewBox="0 0 1024 1024" version="1.1" xmlns="http://www.w3.org/2000/svg" p-id="2923" xmlns:xlink="http://www.w3.org/1999/xlink" width="200" height="200"><path d="M0 0h1024v1024H0z" fill="#58a700" opacity=".01" p-id="2924"></path><path d="M102.4 68.266667h546.133333a34.133333 34.133333 0 0 1 34.133334 34.133333v102.4h238.933333a34.133333 34.133333 0 0 1 32.392533 44.919467L889.309867 443.733333l64.682666 194.013867A34.133333 34.133333 0 0 1 921.6 682.666667H443.733333a34.133333 34.133333 0 0 1-34.133333-34.133334v-102.4H136.533333v375.466667a34.133333 34.133333 0 1 1-68.266666 0V102.4a34.133333 34.133333 0 0 1 34.133333-34.133333z m34.133333 409.6h307.2a34.133333 34.133333 0 0 1 34.133334 34.133333v102.4h396.3904l-53.316267-159.880533a34.133333 34.133333 0 0 1 0-21.572267L874.257067 273.066667H648.533333a34.133333 34.133333 0 0 1-34.133333-34.133334V136.533333H136.533333v341.333334z" fill="#58a700" p-id="2925"></path></svg>