<?xml version="1.0" standalone="no"?><!DOCTYPE svg PUBLIC "-//W3C//DTD SVG 1.1//EN" "http://www.w3.org/Graphics/SVG/1.1/DTD/svg11.dtd"><svg t="1739775055196" class="icon" viewBox="0 0 1024 1024" version="1.1" xmlns="http://www.w3.org/2000/svg" p-id="10503" xmlns:xlink="http://www.w3.org/1999/xlink" width="200" height="200"><path d="M884.171581 884.24472a225.778615 225.778615 0 0 1-160.758469 66.556054 225.99803 225.99803 0 0 1-160.831608-66.556054 225.99803 225.99803 0 0 1-66.556054-160.904747c0-60.704972 23.623742-117.753019 66.556054-160.758469a225.778615 225.778615 0 0 1 160.831608-66.556054c60.704972 0 117.753019 23.623742 160.758469 66.556054 43.00545 43.00545 66.629193 99.980358 66.629193 160.831608 0 60.704972-23.623742 117.753019-66.629193 160.758469zM73.138521 877.662253V73.138521h475.400387v259.422334H804.523732v41.103849l-0.146277 60.266142a300.965014 300.965014 0 0 0-363.49845 186.576367 293.578024 293.578024 0 0 0-18.065215 102.979037c0 56.316661 15.578505 109.122673 42.639758 154.32228H73.138521V877.662253zM621.677429 92.593368l145.691934 166.755828H621.677429v-166.755828z m255.838547 372.713903L877.662253 373.737843V274.48887L637.914181 0H0v950.800774h526.963044a300.599322 300.599322 0 1 0 350.62607-485.493503z" p-id="10504" fill="#6b7280"></path><path d="M189.721324 255.545993h209.029893v-73.138521H189.721324zM440.879005 620.434074a293.578024 293.578024 0 0 0-16.529306 73.138521H189.721324v-73.138521h251.157681z m251.596513-220.658918v24.647682a298.112612 298.112612 0 0 0-135.159987 48.490839H189.721324v-73.138521h502.827332zM887.243399 723.339973l-146.496458-146.569596V686.770713h-181.383532v73.138521h181.383532v110.000336z" p-id="10505" fill="#6b7280"></path></svg>