<?xml version="1.0" standalone="no"?><!DOCTYPE svg PUBLIC "-//W3C//DTD SVG 1.1//EN" "http://www.w3.org/Graphics/SVG/1.1/DTD/svg11.dtd"><svg t="1739708876419" class="icon" viewBox="0 0 1024 1024" version="1.1" xmlns="http://www.w3.org/2000/svg" p-id="15076" data-spm-anchor-id="a313x.search_index.0.i23.2f6f3a81TPd4QQ" xmlns:xlink="http://www.w3.org/1999/xlink" width="200" height="200"><path d="M509.186813 514.813187m-368.527472 0a368.527473 368.527473 0 1 0 737.054945 0 368.527473 368.527473 0 1 0-737.054945 0Z" fill="#f5f5f5" p-id="15077" data-spm-anchor-id="a313x.search_index.0.i24.2f6f3a81TPd4QQ" class="selected"></path><path d="M504.54163906 512.82870628m-152.48205435 0a152.48205433 152.48205433 0 1 0 304.9641072 0 152.48205433 152.48205433 0 1 0-304.9641072 0Z" fill="#F25646" p-id="15078" data-spm-anchor-id="a313x.search_index.0.i22.2f6f3a81TPd4QQ" class=""></path><path d="M509.749451 204.237363c-168.791209 0-306.074725 136.720879-306.074726 306.074725 0 168.791209 136.720879 306.074725 306.074726 306.074725 168.791209 0 306.074725-136.720879 306.074725-306.074725 0-169.35384601-136.720879-306.074725-306.074725-306.074725z m0 606.523077c-165.97802199 0-301.010989-134.47032999-301.01098901-301.010989 0-165.97802199 134.47032999-301.010989 301.01098901-301.01098901s301.010989 134.47032999 301.010989 301.01098901-134.47032999 301.010989-301.010989 301.010989z" fill="#d81e06" p-id="15079"></path></svg>