<?xml version="1.0" standalone="no"?><!DOCTYPE svg PUBLIC "-//W3C//DTD SVG 1.1//EN" "http://www.w3.org/Graphics/SVG/1.1/DTD/svg11.dtd"><svg t="1740444248712" class="icon" viewBox="0 0 1166 1024" version="1.1" xmlns="http://www.w3.org/2000/svg" p-id="19680" data-spm-anchor-id="a313x.search_index.0.i26.56233a810JpoQN" xmlns:xlink="http://www.w3.org/1999/xlink" width="227.734375" height="200"><path d="M1097.204804 1024a68.612621 68.612621 0 0 1-68.584186-68.242971V68.598403a68.584186 68.584186 0 0 1 137.168372 0v887.158626a68.612621 68.612621 0 0 1-68.584186 68.242971z m0 0" fill="#d1ebf7" p-id="19681" data-spm-anchor-id="a313x.search_index.0.i24.56233a810JpoQN" class=""></path><path d="M68.555751 1024A68.584186 68.584186 0 0 1 0 955.757029V853.392572a68.584186 68.584186 0 0 1 137.168372 0v102.364457A68.612621 68.612621 0 0 1 68.584186 1024z" fill="#1899d6" p-id="19682" data-spm-anchor-id="a313x.search_index.0.i21.56233a810JpoQN" class="selected"></path><path d="M411.448247 1024a68.584186 68.584186 0 0 1-68.584186-68.242971V682.785144a68.584186 68.584186 0 0 1 137.168372 0v272.971885A68.612621 68.612621 0 0 1 411.448247 1024z" fill="#1899d6" p-id="19683" data-spm-anchor-id="a313x.search_index.0.i22.56233a810JpoQN" class="selected"></path><path d="M754.312308 1024a68.584186 68.584186 0 0 1-68.555751-68.242971V409.813259a68.584186 68.584186 0 0 1 137.139937 0v545.94377a68.612621 68.612621 0 0 1-68.584186 68.242971z" fill="#d1ebf7" p-id="19684" data-spm-anchor-id="a313x.search_index.0.i23.56233a810JpoQN" class=""></path></svg>