<?xml version="1.0" standalone="no"?><!DOCTYPE svg PUBLIC "-//W3C//DTD SVG 1.1//EN" "http://www.w3.org/Graphics/SVG/1.1/DTD/svg11.dtd"><svg t="1740539823062" class="icon" viewBox="0 0 1024 1024" version="1.1" xmlns="http://www.w3.org/2000/svg" p-id="2944" xmlns:xlink="http://www.w3.org/1999/xlink" width="200" height="200"><path d="M794.331429 310.418286a11.337143 11.337143 0 0 0-14.372572-4.534857c-21.504 9.764571-75.154286 38.070857-99.291428 86.089142-1.718857 3.474286-6.948571 2.157714-6.802286-1.718857 4.352-110.226286-60.086857-251.245714-198.4-306.212571a11.337143 11.337143 0 0 0-14.445714 5.741714c-18.139429 38.729143-90.660571 186.038857-178.468572 264.704a359.350857 359.350857 0 0 0-132.571428 279.113143 359.789714 359.789714 0 0 0 170.057142 305.883429c20.114286 12.434286 44.726857-6.948571 37.668572-29.476572-44.909714-143.542857 104.118857-249.124571 161.316571-283.538286a11.337143 11.337143 0 0 1 17.115429 11.264c-4.059429 29.622857-5.778286 79.396571 23.661714 99.693715 43.227429 29.805714 120.393143 50.176 91.062857 181.723428l-0.109714 0.658286c-4.864 21.577143 18.029714 38.912 37.302857 28.050286 103.862857-58.624 174.116571-169.142857 181.906286-305.005715 9.984-174.409143-56.210286-299.739429-75.593143-332.434285zM405.211429 348.525714c-1.682286 2.230857-41.508571 55.405714-82.395429 90.221715a19.894857 19.894857 0 0 1-28.196571-2.230858 20.004571 20.004571 0 0 1 2.267428-28.196571c37.485714-31.963429 75.849143-83.2 76.251429-83.712a20.004571 20.004571 0 1 1 32.036571 23.917714z" fill="#ff9600" p-id="2945"></path></svg>