<?xml version="1.0" standalone="no"?><!DOCTYPE svg PUBLIC "-//W3C//DTD SVG 1.1//EN" "http://www.w3.org/Graphics/SVG/1.1/DTD/svg11.dtd"><svg t="1739777823986" class="icon" viewBox="0 0 1024 1024" version="1.1" xmlns="http://www.w3.org/2000/svg" p-id="17437" xmlns:xlink="http://www.w3.org/1999/xlink" width="200" height="200"><path d="M534.848 884.352c-10.624 0-16.224-1.248-22.848-2.176a155.584 155.584 0 0 1-32.224-8.096 125.856 125.856 0 0 1-13.856-6.08 73.088 73.088 0 0 1-12.512-7.84l-175.776-136.32H192.128C138.304 723.84 96 682.24 96 627.648v-214.976c0-54.592 42.304-96.224 96.128-96.224h81.184l175.04-149.888c2.336-2.048 4.832-3.904 7.456-5.632 28.48-18.688 78.048-39.52 111.232-20.288 31.328 16.864 40.96 63.04 40.96 100.032v543.136c0 35.136-7.808 74.464-36.448 91.776-10.56 7.36-26.048 8.768-36.704 8.768z m-16.96-71.296c2.272 0 6.88 0 9.184-2.24 9.184-4.544 7.776-17.952 7.776-27.008V240.64c0-9.056 0-25.792-9.216-30.336-6.912-4.512-22.976 7.68-29.888 12.224l-195.52 167.456H192.16c-13.76 0-22.976 9.056-22.976 22.656v214.976c0 13.568 9.184 22.624 22.976 22.624h110.4l195.52 151.616c4.608 2.272 15.232 11.2 19.84 11.2zM680.608 384.256a32 32 0 0 1 45.6-44.896c45.568 46.272 68.608 103.616 68.608 170.24 0 67.136-23.456 122.816-69.984 164.8a32 32 0 1 1-42.88-47.552c32.736-29.504 48.864-67.808 48.864-117.248 0-49.984-16.544-91.168-50.24-125.344z m101.568-86.816a32 32 0 1 1 46.4-44.064c68.48 72.096 103.04 159.264 103.04 259.84 0 100.928-34.784 186.176-103.84 253.888a32 32 0 1 1-44.8-45.696c56.576-55.488 84.64-124.224 84.64-208.16 0-84.256-28.288-155.648-85.44-215.808z" fill="#000000" p-id="17438"></path></svg>