<?xml version="1.0" standalone="no"?><!DOCTYPE svg PUBLIC "-//W3C//DTD SVG 1.1//EN" "http://www.w3.org/Graphics/SVG/1.1/DTD/svg11.dtd"><svg t="1739980390404" class="icon" viewBox="0 0 1024 1024" version="1.1" xmlns="http://www.w3.org/2000/svg" p-id="20580" xmlns:xlink="http://www.w3.org/1999/xlink" width="200" height="200"><path d="M119.466667 59.733333l785.066666 785.066667-59.733333 59.733333-162.133333-162.133333-170.666667 170.666667L149.333333 554.666667c-85.333333-98.133333-85.333333-247.466667 0-341.333334L59.733333 119.466667l59.733334-59.733334zM213.333333 494.933333l298.666667 298.666667 110.933333-110.933333L213.333333 273.066667c-55.466667 64-55.466667 157.866667 0 221.866666z m648.533334-290.133333c98.133333 98.133333 98.133333 251.733333 8.533333 349.866667l-68.266667 68.266666-59.733333-59.733333 68.266667-68.266667c59.733333-68.266667 55.466667-170.666667-8.533334-234.666666s-166.4-68.266667-234.666666-8.533334L512 307.2 456.533333 256c-17.066667-12.8-29.866667-25.6-51.2-29.866667L311.466667 128c72.533333-8.533333 145.066667 12.8 200.533333 64 102.4-89.6 256-85.333333 349.866667 12.8z" p-id="20581" fill="#6b7280"></path></svg>