<?xml version="1.0" standalone="no"?><!DOCTYPE svg PUBLIC "-//W3C//DTD SVG 1.1//EN" "http://www.w3.org/Graphics/SVG/1.1/DTD/svg11.dtd"><svg t="1740485104116" class="icon" viewBox="0 0 1024 1024" version="1.1" xmlns="http://www.w3.org/2000/svg" p-id="7761" xmlns:xlink="http://www.w3.org/1999/xlink" width="200" height="200"><path d="M36.440873 0m278.933113 0l393.252028 0q278.933113 0 278.933113 278.933113l0 466.133774q0 278.933113-278.933113 278.933113l-393.252028 0q-278.933113 0-278.933113-278.933113l0-466.133774q0-278.933113 278.933113-278.933113Z" fill="#FCA315" p-id="7762"></path><path d="M719.420763 1023.770812h0.286485a286.186909 286.186909 0 0 0 152.879777-53.034076 280.354077 280.354077 0 0 0 73.500554-79.276088c17.979789-29.588156 31.410199-64.390336 38.366052-104.670106q1.70745-11.333341 2.46377-22.918789L652.486442 279.219597l-440.533488 47.189785-3.850357 458.467441 180.485458 239.123177h320.049419c2.016853 0 4.033707 0 6.0391-0.080216 1.581396-0.034378 3.162793-0.080216 4.744189-0.148972z" fill="#ED6E18" p-id="7763"></path><path d="M652.486442 279.219597H278.245549a70.395058 70.395058 0 0 0-70.142952 70.188789V769.269128a70.395058 70.395058 0 0 0 70.188789 70.188789h374.195056a70.383599 70.383599 0 0 0 70.142952-70.188789V349.408386a70.395058 70.395058 0 0 0-70.142952-70.188789zM444.051523 464.632594a23.365705 23.365705 0 0 1-23.400083 23.388624h-72.297318v46.639734h72.297318a23.400083 23.400083 0 1 1 0 46.788706h-72.297318v46.788706h72.297318a23.400083 23.400083 0 1 1 0 46.788707H324.988418a23.182354 23.182354 0 0 1-8.113252-1.455343 23.423002 23.423002 0 0 1-15.355588-22.002037V464.701351a23.491758 23.491758 0 0 1 23.46884-23.468839h95.628644a23.480299 23.480299 0 0 1 23.434461 23.400082z m185.836994 187.005853a23.400083 23.400083 0 0 1-46.788706 0v-69.78771a23.102139 23.102139 0 1 0-46.204277 0v69.78771a23.400083 23.400083 0 0 1-46.788706 0V534.660952a23.388623 23.388623 0 0 1 40.291229-16.157746 69.008471 69.008471 0 0 1 29.50794-6.554773 69.98252 69.98252 0 0 1 69.902304 69.902304v69.78771z" fill="#FFFFFF" p-id="7764"></path><path d="M792.531698 769.051399a23.365705 23.365705 0 0 1-23.388623-23.400082V278.176792a46.834544 46.834544 0 0 0-46.788707-46.788706H302.516546a23.400083 23.400083 0 1 1 0-46.788706h419.860741a93.669088 93.669088 0 0 1 93.577413 93.577412v467.543281a23.365705 23.365705 0 0 1-23.423002 23.331326z" fill="#FFFFFF" p-id="7765"></path></svg>