<?xml version="1.0" standalone="no"?><!DOCTYPE svg PUBLIC "-//W3C//DTD SVG 1.1//EN" "http://www.w3.org/Graphics/SVG/1.1/DTD/svg11.dtd"><svg t="1740485210348" class="icon" viewBox="0 0 1024 1024" version="1.1" xmlns="http://www.w3.org/2000/svg" p-id="20685" xmlns:xlink="http://www.w3.org/1999/xlink" width="200" height="200"><path d="M405.333333 85.333333h213.333334v170.666667H405.333333zM405.333333 768h213.333334v170.666667H405.333333z" fill="#E9FF5B" p-id="20686"></path><path d="M581.397333 42.666667a64 64 0 0 1 63.722667 58.112L659.434667 256H661.333333a106.666667 106.666667 0 0 1 106.666667 106.666667v87.168a32 32 0 0 1 21.333333 30.165333v64a32 32 0 0 1-21.333333 30.165333V661.333333a106.666667 106.666667 0 0 1-106.666667 106.666667h-1.898666l-14.293334 155.221333a64 64 0 0 1-59.946666 58.005334l-3.797334 0.106666h-138.794666a64 64 0 0 1-63.274667-54.357333l-0.448-3.754667L364.544 768H362.666667a106.666667 106.666667 0 0 1-106.666667-106.666667V362.666667a106.666667 106.666667 0 0 1 106.666667-106.666667h1.877333l14.336-155.221333A64 64 0 0 1 442.602667 42.666667h138.794666z m35.2 725.333333h-209.194666l13.952 151.296a21.333333 21.333333 0 0 0 18.730666 19.221333l2.517334 0.149334h138.794666a21.333333 21.333333 0 0 0 20.864-16.896l0.384-2.474667 13.952-151.296zM533.333333 874.666667a21.333333 21.333333 0 0 1 0 42.666666h-42.666666a21.333333 21.333333 0 0 1 0-42.666666h42.666666z m0-85.333334a21.333333 21.333333 0 0 1 0 42.666667h-42.666666a21.333333 21.333333 0 0 1 0-42.666667h42.666666z m128-490.666666H362.666667a64 64 0 0 0-64 64v298.666666a64 64 0 0 0 64 64h298.666666a64 64 0 0 0 64-64V362.666667a64 64 0 0 0-64-64z m-149.333333 64a21.333333 21.333333 0 0 1 21.333333 21.333333v106.666667h64a21.333333 21.333333 0 0 1 0 42.666666h-85.333333a21.333333 21.333333 0 0 1-21.333333-21.333333v-128a21.333333 21.333333 0 0 1 21.333333-21.333333z m69.397333-277.333334h-138.794666a21.333333 21.333333 0 0 0-21.248 19.370667L407.402667 256h209.194666l-13.952-151.296A21.333333 21.333333 0 0 0 581.397333 85.333333zM533.333333 192a21.333333 21.333333 0 0 1 0 42.666667h-42.666666a21.333333 21.333333 0 0 1 0-42.666667h42.666666z m0-85.333333a21.333333 21.333333 0 0 1 0 42.666666h-42.666666a21.333333 21.333333 0 0 1 0-42.666666h42.666666z" fill="#4E4E4E" p-id="20687"></path></svg>