<?xml version="1.0" standalone="no"?><!DOCTYPE svg PUBLIC "-//W3C//DTD SVG 1.1//EN" "http://www.w3.org/Graphics/SVG/1.1/DTD/svg11.dtd"><svg t="1739028546163" class="icon" viewBox="0 0 1024 1024" version="1.1" xmlns="http://www.w3.org/2000/svg" p-id="4354" xmlns:xlink="http://www.w3.org/1999/xlink" width="200" height="200"><rect width="1024" height="1024" fill="
#fafafa" /> <path d="M512.02649822 945.94404801a25.49950297 25.49950297 0 0 1-19.28463627-8.82392855 25.70537358 25.70537358 0 0 1-6.15575519-14.79215676c-19.93282356-101.49250303-44.28270931-200.29441177-65.78300813-287.53491636-47.48492421-192.68125147-84.99426485-344.87516333-57.48089261-437.26244817 18.27566298-61.36798715 79.5111574-104.22998029 148.9101628-104.2299803 69.39900542 0 130.63246202 42.86199314 148.908125 104.2299803 27.46852871 92.23237285-10.0408119 244.02677201-57.52981176 436.20659357-21.63279156 87.55236807-46.13351199 186.70690816-66.1437924 288.60096336a25.73390961 25.73390961 0 0 1-6.1679854 14.80030967 25.51173151 25.51173151 0 0 1-19.27240604 8.80558324z m0.2058706-801.68519208c-46.28434836 0-88.36973873 28.52030601-100.07178686 67.81726216-23.55697378 79.1034918 14.29480414 232.6875443 58.12092705 410.5216031 13.38978592 54.33167413 27.8761943 113.11098255 41.75314212 174.36482227 13.98497847-61.64723728 28.59980235-120.7914073 42.10577347-175.44921287 43.8220456-177.34486077 81.6656723-330.50494018 58.15965546-409.4372125-11.70204978-39.29695447-53.78540068-67.81726214-100.06771124-67.81726216z" p-id="4355"></path><path d="M512.03669061 945.14094701c-7.21568709 0-14.29684363-3.06564825-19.26017586-8.78927742-51.95498113-59.91261985-132.79920714-167.45284742-203.88798812-289.60178204-53.55099239-92.01427203-117.66257191-220.99976418-118.96710117-312.94677011-1.34325933-94.59479618 41.82652165-137.90318334 78.27796821-157.57917767 20.26303403-10.93767555 41.89582558-16.48397015 64.29910486-16.48397018 31.64302797 0 63.33497507 11.29845981 89.23398901 31.81220797a25.47911819 25.47911819 0 0 1 8.89323248 26.17419019c-20.24061142 80.66281413 16.78564289 230.91012117 59.65986627 404.88358365 21.79381865 88.43904099 46.49837357 188.6759339 66.74713789 292.15784744a25.47911819 25.47911819 0 0 1-24.99603357 30.37314817z m-199.53819208-734.44477886c-13.85860251 0-27.34826784 3.48758183-40.09190426 10.36898288-35.47304877 19.14806789-52.32799559 55.78704142-51.53100803 112.01436005 1.64493207 115.71596709 129.08944719 334.07201665 244.22448973 487.40331722-14.60870707-65.24285147-30.07147541-127.98467179-44.29086223-185.68162737-43.49387466-176.49487675-78.41045927-318.17712397-63.23102003-411.76906199-14.05224292-8.02082588-29.63731163-12.33597079-45.07969518-12.33597079z" p-id="4356"></path><path d="M512.02853602 945.14094701a25.56065232 25.56065232 0 0 1-6.3922013-0.81533286c-69.72106126-18.0616378-168.54946823-77.80507597-264.36930067-159.81318724-95.30413452-81.56987015-167.1960165-167.37742841-192.31027485-229.53832581-23.32052768-57.71937655-18.87493119-109.47867777 13.21652864-153.8368061 21.34946412-29.51093399 53.83635931-45.76253535 91.47615151-45.76253533 21.0294461 0 42.98429349 5.33838452 61.82049627 15.03064237a25.4831955 25.4831955 0 0 1 13.10849794 16.66945764c38.13306922 157.78097268 203.16641793 401.11878948 302.69804811 515.89508722a25.47911819 25.47911819 0 0 1-19.24794565 42.17100011z m-358.37909667-538.80998711c-14.75342833 0-35.43635815 4.2804921-50.18978652 24.67193993-21.42691929 29.62100414-23.80157447 63.92609037-7.25441551 104.8802071 21.86516038 54.11968673 90.1451224 134.55420768 178.19688257 209.9132884 52.84980865 45.23053157 106.05020915 83.10880938 153.63093385 109.98418499-39.51301749-52.42583555-79.97793619-111.66784381-115.65277831-169.76227431-46.05809462-75.00033427-105.00862255-182.09620562-130.15753197-274.6119059-9.19490523-3.30413216-19.04411284-5.0754402-28.57330411-5.07544021z" p-id="4357"></path><path d="M511.63310065 945.14094701c-33.95653216-0.00203781-136.30513258-29.04008124-215.36582038-56.35981136-67.2098394-23.22676502-186.89647295-68.86088656-233.3581559-113.54922369-36.87949523-35.46489585-45.74622951-93.27599725-19.76771916-128.8652296 16.8223335-23.04943043 40.87258431-35.23252538 69.54576446-35.23252536 8.13089603 0 16.65722912 1.00082036 25.34255151 2.977999a25.47911819 25.47911819 0 0 1 14.06855043 8.71385841c45.88687347 56.11113508 111.48031849 117.80729317 179.96207548 169.26492168 71.54129012 53.75890247 137.72381095 90.30615115 186.35835245 102.90302845a25.47708037 25.47708037 0 0 1 18.89939155 27.76204685 25.47708037 25.47708037 0 0 1-25.03883927 22.37882055l-0.64615117 0.00611507zM112.68716967 662.09239505c-12.40323522 0-21.15785985 4.41502098-28.38577713 14.31722506-9.85940004 13.50597116-5.99472643 42.93129708 13.92994425 62.09363298 33.67728033 32.39109474 124.12407548 70.64034751 212.34705512 101.11948853a1122.0433275 1122.0433275 0 0 1-9.13375421-6.7937518c-68.65909157-51.59215905-134.74173463-113.26589455-182.70159056-170.3941558a55.79723212 55.79723212 0 0 0-6.05587747-0.34243897z" p-id="4358"></path><path d="M374.51467299 958.36155124h-0.0040756c-40.68505733 0-69.03618334-3.47331382-86.66977079-10.6176575-27.71108991-11.22304249-44.58641986-40.00017772-39.25415042-66.93670266 4.53120624-22.87617147 19.37432161-38.95451552 40.72378573-44.11556715a25.48727277 25.48727277 0 0 1 14.43137248 0.72768365c104.03022311 36.5513243 188.95518573 56.76339969 207.88515114 56.76136189l0.25682921-0.0020378c12.10360029 0 22.62749682 8.52429361 25.03884097 20.40775528 2.42968945 11.96907141-3.89932475 23.97890907-15.18963165 28.63037616-20.70127513 8.52837091-96.13577322 15.14478812-147.21835107 15.14478813z m-75.7035575-68.71004851a20.15907898 20.15907898 0 0 0-0.23644611 1.05585459c-0.14472127 1.73869471 2.59479381 7.45620882 8.39995544 9.80844141 4.14188594 1.67754537 15.96419662 5.1569743 44.55176874 6.41869954a2026.743656 2026.743656 0 0 1-52.71527807-17.28299554z" p-id="4359"></path><path d="M511.96330939 945.14094701c-3.7790622 0-7.59481499-0.84182941-11.15985367-2.5825636a25.47504258 25.47504258 0 0 1-13.8341421-27.79262406c20.24876602-103.47783625 44.94924196-203.71269135 66.74510009-292.14765504 42.87422337-173.97753978 79.90251718-324.22892412 59.66190574-404.89377604a25.48523329 25.48523329 0 0 1 8.8932308-26.176228c25.90105346-20.51374814 57.59300058-31.81017017 89.23399073-31.81017017 22.40327923 0 44.03607082 5.54629459 64.30114264 16.48600967 36.45348435 19.67599436 79.62326534 62.98845882 78.27593039 157.57917767-1.30860821 91.94904542-65.41610876 220.93453756-118.96710283 312.94677011-71.09081881 122.15301193-151.9350448 229.69323949-203.89206375 289.60178204a25.46892747 25.46892747 0 0 1-19.25813804 8.78927742zM666.42384411 223.03213894c15.17943925 93.59397581-19.73714538 235.27826249-63.23305785 411.7792527-14.21734897 57.69084053-29.68215515 120.44081541-44.28882439 185.67347448 115.13504253-153.32722329 242.57955764-371.68327283 244.22245189-487.40535504 0.80106316-56.22324305-16.05592146-92.86425436-51.52693242-112.01232224-12.74567422-6.87936155-26.23533954-10.36898287-40.09597987-10.36898121-15.44034575-0.00203781-31.02541449 4.31310541-45.07765736 12.33393131z" p-id="4360"></path><path d="M511.97146398 945.14094701a25.48115766 25.48115766 0 0 1-19.24794565-42.17303791c99.53366969-114.77833555 264.5690562-358.11411286 302.7000859-515.89508721a25.4831955 25.4831955 0 0 1 13.10849797-16.66945934c18.83620276-9.69225615 40.79105019-15.03064236 61.81845845-15.03064068 37.63979222 0 70.12668906 16.25160133 91.47818932 45.76253532 32.0873825 44.36016613 36.53298068 96.1174279 13.21449083 153.83884391-25.11222049 62.16089742-97.0041025 147.97049346-192.31027485 229.53832581-95.82187026 82.00811126-194.65027722 141.75154944-264.37134016 159.81318724-2.12190159 0.54831125-4.2682619 0.81533119-6.39016181 0.81533286zM841.78133382 411.40640011c-25.14890944 92.5157003-84.09943734 199.61157164-130.15753197 274.6119059-35.67688157 58.0944305-76.14179861 117.33643877-115.65277828 169.76227431 47.58276416-26.87537393 100.77501177-64.74957614 153.63093383-109.98418499 88.05175849-75.36111853 156.33375999-155.79564113 178.19688088-209.9132884 16.54308169-40.95207895 14.17046766-75.25920297-7.25441383-104.8802071-14.75342833-20.39144779-35.43839764-24.6719399-50.19182598-24.67193993-9.52919127 0-19.38043673 1.77130804-28.57126465 5.07544021z" p-id="4361"></path><path d="M512.36689935 945.14094701l-0.6441117-0.00407728a25.47911819 25.47911819 0 0 1-6.13944937-50.14086738c48.63250366-12.59891513 114.81706398-49.14412431 186.35835411-102.90302848 68.48175699-51.4576285 134.07316254-113.15378659 179.9620738-169.26492168a25.48727277 25.48727277 0 0 1 14.06855043-8.71385839c8.68328458-1.97718032 17.20757818-2.97799901 25.34051371-2.97799901 28.67318186 0 52.72139317 12.18513443 69.54576446 35.23456319 25.97851029 35.58923401 17.11177605 93.39829759-19.76568136 128.86523128-46.46168295 44.68629761-166.1503543 90.32245697-233.3581559 113.54718418-79.06272559 27.31973015-181.41132768 56.35777358-215.36785818 56.35777357z m392.89209134-282.70407518c-47.96393154 57.12622346-114.04657462 118.80199844-182.70566621 170.39415579a1159.92364479 1159.92364479 0 0 1-9.13783149 6.79782912c88.22297797-30.47914103 178.67181261-68.73043331 212.35317022-101.12152636 19.92467068-19.16437371 23.78934428-48.58766015 13.92994425-62.093633-7.2279173-9.90424356-15.98254192-14.31926453-28.38577713-14.31926449a54.80252688 54.80252688 0 0 0-6.05383964 0.34243894z" p-id="4362"></path><path d="M649.49144046 958.36155124c-51.08461403 0-126.52115159-6.6143794-147.22446452-15.14478813a25.47911819 25.47911819 0 1 1 9.96131725-49.03609364c19.08080346 0 104.00780219-20.21411321 208.03598751-56.76136189a25.40981595 25.40981595 0 0 1 14.4354498-0.72564415c21.34946412 5.16104993 36.18850222 21.24143179 40.71563115 44.11556543 5.3363467 26.93244768-11.54102103 55.71162238-39.25822607 66.93670269-17.63154959 7.14230587-45.98063781 10.61561971-86.66569512 10.61561969z m75.70152135-68.71004851a2026.9148755 2026.9148755 0 0 1-52.71731756 17.28299554c28.58757213-1.2596874 40.4058055-4.74115412 44.54769312-6.41666172 5.80516164-2.35019311 8.54671621-8.0697467 8.38976305-9.88997386a17.40733369 17.40733369 0 0 0-0.22013861-0.97635996z" p-id="4363"></path></svg>